<?xml version="1.0"?><svg width="370.29501" height="370.29498" xmlns="http://www.w3.org/2000/svg">

 <metadata id="metadata2695">image/svg+xml</metadata>
 <g>
  <title>Layer 1</title>
  <g id="layer1">
   <a transform="matrix(0.237541, 0, 0, 0.237541, 315.918, 169.758)" id="a7312">
    <path fill="#ffffff" stroke="#000000" stroke-width="16.147373" stroke-miterlimit="4" id="path1961" d="m219.918213,67.785095a771.43634,771.433167 0 1 1 -1542.872803,0a771.43634,771.433167 0 1 1 1542.872803,0z"/>
   </a>
   <path fill="#000000" fill-rule="evenodd" stroke="#000000" stroke-width="1.90033" stroke-miterlimit="4" id="path3740" d="m143.068665,46.016006c-1.388824,-4.696289 -0.765839,-9.310181 5.429504,-10.859009c4.986176,-1.246552 8.803802,0.513794 13.573792,-0.678696c5.371094,-1.342773 9.880371,-2.809433 14.931152,-4.072144c5.169067,-1.292252 7.562164,5.42952 12.895111,5.42952c5.57785,0 8.507996,-2.805695 13.573761,-4.072128c4.607666,-1.151917 9.17572,4.125793 10.180359,8.144257c1.621826,6.487335 3.441864,8.192734 8.144257,12.895096c4.06842,4.068405 -2.989777,8.565674 -4.072144,12.895096c-1.268768,5.075073 -3.031708,12.306839 -8.822937,10.859024c-5.884369,-1.471085 -6.608795,5.60762 -13.573792,-1.357361c-2.224182,-2.224197 -7.849335,3.393433 -12.2164,3.393433c-4.646729,0 -9.032593,-4.541183 -12.895111,-0.678696c-3.543274,3.543289 -6.132233,4.738815 -11.53772,2.036072c-3.102905,-1.551453 -10.227509,-3.914261 -13.573761,-4.750809c-5.392792,-1.348206 -9.484833,-2.002426 -12.2164,-7.465591c-2.392639,-4.785263 3.240967,-9.349167 6.108185,-12.2164c2.904053,-2.904053 2.516083,-5.611542 4.072144,-9.501663z"/>
   <path fill="#000000" fill-rule="evenodd" stroke="#000000" stroke-width="1.90033" stroke-miterlimit="4" id="path3742" d="m119.314545,69.091446c2.52182,5.043655 -1.214661,9.69194 2.714752,14.931168c3.890167,5.186874 6.069,9.52124 12.895081,6.1082c6.828674,-3.414337 6.554474,6.340637 3.393463,9.501633c-1.305267,1.305283 -10.792969,0 -12.895111,0c-6.490021,0 -9.200256,-0.175598 -12.895081,4.750839c-3.433716,4.578278 -7.902191,5.913666 -5.429504,10.859024c1.75,3.500015 -0.033051,10.925125 -1.357391,13.573776c-2.216309,4.432587 -2.929962,9.071259 -0.67868,13.573792c2.147797,4.295593 9.501648,7.78894 9.501648,0.67868c0,-6.698639 3.923798,-6.638519 8.144257,-10.859009c2.723328,-2.723358 -0.212341,-10.646698 3.393463,-14.252487c4.113434,-4.113449 6.497864,6.887512 7.465546,8.822952c2.706024,5.411987 3.655426,8.171082 8.144287,11.53772c3.356201,2.517151 4.650635,10.75882 7.465576,13.573792c4.260681,4.260681 -3.583954,10.942383 -4.072113,12.895081c-1.486298,5.94516 -6.724274,5.170563 -12.2164,4.072144c-7.207489,-1.441498 -7.209381,-1.020325 -11.53772,4.750824c-2.370148,3.160187 5.025177,10.317535 -3.393463,6.108215c-5.450439,-2.72522 -8.128448,3.385529 -12.2164,5.429504c-4.47583,2.237915 -9.87088,-3.273956 -11.53772,3.393433c-1.427948,5.711823 -1.276276,10.229004 -8.144287,6.108215c-4.776093,-2.865662 -7.969025,4.400391 -10.180298,8.822937c-2.85495,5.7099 1.45636,9.112823 -4.750824,12.216431c-7.476334,3.738159 -1.357391,-5.353912 -1.357391,-8.144287c0,-4.142548 -5.627563,-10.576447 -7.465591,-14.252472c-2.692078,-5.384155 -5.118561,-6.709137 -10.859039,-8.144257c-6.684998,-1.671234 -9.233505,2.857208 -11.537689,7.465576c-2.181534,4.363068 0.434738,9.119995 -0.67868,13.573792c-1.41246,5.64975 4.680435,8.858154 8.822937,6.786865c5.608414,-2.804199 9.360565,2.855835 5.429535,6.786926c-4.370331,4.370331 -5.33107,4.655853 -0.678711,10.859009c5.464111,7.285461 3.393448,1.652954 3.393448,10.859009c0,2.714783 0,5.429535 0,8.144318c0,2.648926 -0.353455,5.478973 3.478287,7.804886c4.650574,2.822998 6.901947,4.549683 11.834641,3.56311c4.215271,-0.843018 7.040741,0.831177 10.477264,2.20575c4.8638,1.945496 7.389313,7.691284 11.53772,10.180359c5.305908,3.183533 9.469513,5.280945 14.931152,7.465576c4.174225,1.669678 9.615601,3.997803 12.2164,7.465576c3.041321,4.055115 7.166565,8.089661 10.859039,10.859009c4.329102,3.246826 9.575562,4.146057 13.573792,8.144287c3.726501,3.726501 7.385193,3.964966 11.53772,9.501648c3.90097,5.201355 9.338287,5.687195 14.252472,8.144287c4.280487,2.140259 7.44516,-6.807312 12.895081,-1.357422c2.839752,2.839783 7.414368,6.582092 8.144257,9.501648c1.363983,5.455872 -5.808624,7.465576 -9.501648,7.465576c-2.892883,0 -0.393555,0.590393 -1.357391,2.036072c-3.647827,0 -2.042542,8.146912 -5.429474,9.501648c-1.624664,0.649902 -3.955933,0.989014 -5.429535,1.357422l-3.393433,0c-0.904938,-0.226257 -1.809845,-0.452515 -2.714752,-0.678711c-2.92572,-0.731445 -10.691437,4.667053 -13.573792,6.108215c-3.636871,1.81842 -9.874359,1.077148 -13.65863,2.969238c-15.677155,-4.956543 -32.059967,-12.220032 -46.150848,-20.530334c-0.487457,-0.339966 1.534943,-12.794434 0.084839,-15.694702c-2.255829,-4.511658 -6.401764,-9.065979 -10.859039,-10.180298c-5.990784,-1.497742 -9.62796,-8.649658 -10.859009,-13.573792c-1.339813,-5.359314 -3.177994,-10.072632 -7.465576,-12.216431c-7.1996,-3.599792 -0.64772,-8.499084 2.714752,-10.180359c4.803314,-2.401611 6.50946,-8.88269 3.393433,-12.21637c-5.153168,-5.513062 -7.257614,-3.798462 -11.53772,-5.938538c-3.512314,-1.756165 -6.423279,-3.466125 -7.465576,-7.635239c-1.142303,-4.569183 -3.579544,-8.888733 -4.750809,-13.573792c-1.172058,-4.688202 -2.264389,-9.057495 -3.393448,-13.573761c-0.523605,-2.094452 -7.144226,-9.978088 -8.822968,-12.216431c-3.728729,-14.421631 -7.429504,-24.41568 -7.423157,-27.274811c0.02034,-9.18869 3.170456,-5.790192 3.054092,-10.05307c-0.205902,-7.543488 0.040253,-10.58078 1.569473,-15.525024c0.918793,-2.970612 2.50882,-4.641388 1.442215,-8.907806c-1.301819,-5.207245 -0.521881,-9.815247 1.611877,-14.082794c2.585205,-5.17038 3.56311,-5.335846 3.56311,-11.664978c0,-7.158524 6.135956,-13.163452 12.470917,-16.330948c5.572769,-2.786377 9.699326,-7.564423 14.931183,-10.180344c4.616257,-2.308121 11.704483,-5.084381 14.252457,-10.180328c2.294342,-4.588715 4.53656,-9.07309 6.786896,-13.573792c0.776703,-1.553406 -0.391418,-3.113663 0.339355,-4.538727c3.58783,-6.996719 2.979889,-6.243423 10.519684,-11.071121c3.362762,-3.362778 8.822937,-8.681198 8.822937,-13.573776c0,-5.48291 -2.110992,-8.748032 2.036072,-12.895096c2.03421,-2.03421 10.823944,-0.678696 13.573792,-0.678696c6.172241,0 8.291748,0.686783 13.573792,2.799591c7.331024,2.932419 0.176208,7.79837 -3.223785,11.19838c-8.685974,6.080521 -11.279999,8.569321 -10.350006,21.293869z"/>
   <path fill="#000000" fill-rule="evenodd" stroke="#000000" stroke-width="1.90033" stroke-miterlimit="4" id="path5518" d="m166.144104,84.361954c-0.791809,1.244263 -1.583618,2.488525 -2.375427,3.732788c-1.743347,2.739578 1.407837,0.635178 3.054108,4.750824c1.145569,2.863861 -0.253082,4.503464 0.339325,7.465576c0.636993,3.184845 2.915466,5.699005 3.393463,9.162308c0.167419,1.21312 -2.896393,5.124359 -3.732788,6.1082c-3.064667,3.604996 -1.309875,9.13121 -2.036072,13.573792c-0.733429,2.933655 3.393433,5.977417 3.393433,8.822968c0,2.267822 2.893494,3.054077 4.750824,3.054077c3.587585,0 3.833435,-0.421295 4.750824,-2.714752c0.709839,-1.774536 0.987976,-5.750824 2.714783,-6.786865c1.208923,-0.725372 5.429504,-3.464966 5.429504,-4.750854c0,-2.566833 3.950256,-4.968307 5.768829,-6.78688c2.045471,-2.045425 4.841522,-3.608475 7.126251,-4.750824c3.347229,-1.673615 4.411499,-2.710434 4.411499,-6.44754c0,-2.449799 -3.569,-5.909271 -3.054108,-8.483627c0.549927,-2.749603 -0.626892,-7.300934 -2.036072,-9.162292c-2.327911,-3.074951 -2.507538,-4.263931 -3.054077,-7.804932c-0.43869,-2.841858 -1.703339,-3.729492 -4.411499,-2.375412c-3.114014,1.557007 -5.03006,2.375412 -8.483643,2.375412c-2.049072,0 -4.226257,-0.33934 -6.44751,-0.33934c-3.55307,1.713501 -5.616516,1.219223 -9.501648,1.357376z"/>
   <path fill="#000000" fill-rule="evenodd" stroke="#000000" stroke-width="1.90033" stroke-miterlimit="4" id="path5522" d="m243.912231,82.15123c-4.072357,-0.979721 -4.310944,0.307938 -7.295898,6.277863c-2.63858,9.707184 1.289795,8.512802 2.375397,13.064774c0.955811,4.007782 3.393433,9.236038 3.393433,13.234421c0,5.594589 0.978271,10.849091 6.44754,12.216431c6.547821,1.636932 6.400513,2.036041 12.725433,2.036041c7.002655,0 3.61673,-8.376373 2.036072,-11.537704c-2.488831,-4.977661 -4.788605,-8.681625 -9.501648,-12.216415c-2.92157,-2.191162 -0.931549,-9.328644 3.393433,-0.67868c3.045349,6.090637 6.250946,7.536957 11.53772,10.180328c5.93573,2.967865 3.832733,9.741089 0.678711,12.895111c-3.75531,3.75528 -6.434845,5.756134 -10.180359,9.501648c-2.314941,2.314941 -1.904907,10.334412 -2.714752,13.573792c-1.294769,5.179108 -7.363525,7.567627 -3.393433,11.537689c3.763489,3.763519 8.757874,1.180725 5.429504,9.501648c-2.354523,5.886261 -5.617828,5.231415 -9.501648,8.144287c-4.823486,3.617615 -3.237091,7.099579 -0.67868,12.2164c2.730469,5.460968 1.447845,7.465576 8.822937,7.465576c7.029449,0 7.15921,1.663757 12.216431,-3.393463c2.304321,-2.304321 -0.740601,-10.441833 0,-13.404083c2.019562,-8.078369 5.215424,-3.080322 2.036041,-11.028717c-1.514679,-3.786713 3.896179,-9.671326 7.974609,-9.671326c4.1008,0 11.630981,6.848419 16.627869,5.599182c7.299347,-1.824799 -1.948273,-8.144257 -5.599182,-8.144257c-4.749939,0 -12.467133,-3.33075 -4.072113,-5.429504c5.511871,-1.377991 3.101288,-1.940155 10.010651,-0.169678c2.916687,0.747406 3.115448,2.191345 5.22226,4.781097c1.59491,1.96051 3.038849,1.332672 6.485107,-0.030273c1.111176,-4.81366 -3.47702,-3.858154 -3.656708,-6.606873c-0.206665,-3.162109 2.788452,-4.38205 3.656708,-6.118561c2.058044,-4.116058 -4.188477,-8.440002 -5.090149,-12.046722c-1.132996,-4.531952 -2.372742,-17.306564 2.88443,-17.306564c5.346313,0 13.580048,1.552063 15.10083,7.635254c1.327118,5.308395 -6.112122,9.172043 -8.144257,14.252457c-1.913666,4.784119 -4.103638,9.470154 -0.67868,12.895111c3.464661,3.464691 5.429504,-6.877899 5.429504,1.357361c0,5.471252 7.142578,-7.530884 7.465576,-8.822937c1.876343,-7.505341 5.429504,3.029724 5.429504,6.786896c0,5.393433 -1.515198,9.938293 -4.750854,14.252441c-3.531403,4.708588 -7.511932,4.843597 -10.180298,10.180359c-3.243347,6.486694 -0.667206,7.459839 -7.465607,10.859039c-4.368164,2.184082 -11.035858,0.501831 -13.573761,-2.036072c-5.159576,-5.159576 -5.873871,-4.195404 -10.859039,2.036072c-3.685913,4.607391 -7.096619,7.096619 -10.859009,10.859009c-3.915253,3.915253 -9.775543,4.619904 -12.216431,9.501648c-2.158173,4.316376 -5.15033,9.939606 -4.072113,14.252472c1.401855,5.607452 -3.322083,9.430267 -6.786896,12.895111c-3.404877,3.404846 -5.060211,10.060455 -6.108185,14.252472c-1.672211,6.688751 0.014923,6.816772 2.714752,12.216385c1.185455,2.370911 -2.940674,10.857117 -3.393463,13.573792c-0.387573,2.325439 8.728241,8.633484 10.180359,11.53772c1.919617,3.839233 9.181213,1.036926 12.2164,4.072144c2.603912,2.603882 10.246704,-0.827759 12.895081,-1.357422c5.418182,-1.083618 8.375061,-4.389771 13.573792,-5.429504c3.071655,-0.614319 6.600311,-6.693604 10.859039,-8.822937c4.816498,-2.408264 8.675171,-2.640869 12.895081,-4.750854c3.43988,-1.71991 -3.43988,9.81781 0,11.53772c4.784668,2.392334 7.75769,2.903687 6.108215,9.501648c-1.052948,4.211792 -2.986084,7.454956 -4.411499,11.368042c-3.187286,8.75 -0.803375,5.893555 -1.018036,12.046753c14.758331,-17.829529 16.70755,-19.397827 28.504913,-39.024597c11.532471,-21.010239 18.301758,-39.625992 21.039429,-65.15419c0.472412,-4.405273 0.67865,-8.955902 0.67865,-13.573761c0,-4.379639 0.533691,-11.919678 -3.393433,-13.573792c-8.463379,-3.564789 -7.96405,-5.625092 -16.288513,-8.144287c-3.957642,-1.978821 -10.554443,-8.424377 -9.501648,-12.895081c4.005981,-0.640442 8.413696,3.991028 12.265259,6.465546c4.03656,2.593475 4.797607,7.971954 11.149475,9.822998c2.797424,-2.366669 -4.036377,-30.782227 -2.036072,-34.782837c-1.531982,-10.950775 -13.968994,-34.458923 -11.368042,-40.212326c-12.729919,-21.519897 -15.74884,-27.35466 -31.898376,-45.472168c-14.000061,-15.706131 -31.108643,-27.145721 -50.053314,-36.649216c-22.814484,-10.219925 -43.816925,-15.993927 -69.226288,-15.609848c-5.924011,-0.586914 -5.43158,5.090164 -12.2164,5.090164c-5.197784,0 -8.189331,-2.703491 -13.573792,-1.357376c-1.388092,0.347015 -2.714752,0.904922 -4.072144,1.357376c-5.07132,1.690445 -7.434937,9.090042 -12.2164,2.714752c-0.717316,-0.95639 16.53418,-3.949295 6.786896,-8.822952c-5.115143,-2.557571 -11.483704,5.953995 -8.822968,9.501648c1.526367,2.035172 -2.902527,6.1082 -8.822968,6.1082c-5.128723,0 -10.164337,-0.6147 -8.822968,4.750824c1.35199,5.407959 5.704926,-0.885254 -2.714722,5.42952c-5.08844,3.816315 7.944305,1.613098 9.501617,0.67868c4.6716,-2.802948 8.030975,-3.393448 13.573792,-3.393448c4.108856,0 8.659149,-3.224945 12.895111,-4.072128c5.944305,-1.188858 10.398376,1.12706 14.931152,3.393448c2.00531,1.002655 11.014801,-1.774612 12.895081,-2.714752c7.515381,-3.75769 3.716644,1.325089 5.429535,4.750809c1.125244,2.250549 8.405243,1.879379 10.859009,6.786911c3.033417,6.066833 0.619568,8.1147 7.465576,11.537704c0.408752,0.204361 6.901306,-2.289597 13.573792,2.714752c4.424713,3.318542 8.312592,1.581818 12.2164,6.786896c0.869171,1.158859 2.234192,2.026901 2.714752,3.393448c1.756744,4.995514 -1.046448,1.980118 2.375427,6.617218c0.684937,0.928192 2.431976,-0.282791 3.393433,4.750824c1.897491,9.933914 9.355865,12.948639 6.617249,16.967224c-2.411591,3.538681 -2.697052,0.714142 -11.368073,-3.902466c-0.445862,-0.111465 -1.197571,-0.67868 -1.357391,-0.67868c-1.098175,0 -1.915649,-0.678696 -2.884399,-0.678696c-0.282806,0.000015 -0.565582,0.000015 -0.848358,0.000015z"/>
  </g>
 </g>
</svg>